<?xml version="1.0"?>
<svg xmlns="http://www.w3.org/2000/svg" xmlns:xlink="http://www.w3.org/1999/xlink" version="1.1" id="Layer_1" x="0px" y="0px" width="100%" viewBox="0 0 512 512" enable-background="new 0 0 512 512" xml:space="preserve" style="background-color:transparent;">
<path fill="#4E4E4D" opacity="1.000000" stroke="none" d=" M231.000000,0.999999   C248.020889,1.000000 265.041779,1.000000 282.533508,1.397529   C283.512238,2.158770 283.971222,2.712533 284.535370,2.857758   C293.325043,5.120478 302.392029,6.603658 310.880554,9.684402   C340.021454,20.260557 364.528198,37.524792 383.628052,62.146187   C399.005951,81.969658 409.425293,104.085564 414.078033,128.792496   C415.565033,136.688675 416.623718,144.665527 417.904694,152.772034   C421.050629,152.934738 424.250824,152.769196 427.325348,153.313385   C446.251343,156.663147 462.304382,165.033691 474.115692,180.623795   C483.151855,192.550903 488.367767,205.864716 489.019196,220.915863   C489.468384,231.294220 488.443481,241.413208 484.946747,251.271362   C484.491486,252.554901 484.922455,255.034592 485.875641,255.802490   C498.451019,265.933594 506.613220,278.845184 510.976532,294.303741   C511.261230,295.312531 512.307800,296.106232 513.000000,297.000000   C513.000000,307.687561 513.000000,318.375122 512.623779,329.509949   C511.694244,330.919342 510.911224,331.817322 510.622192,332.853149   C506.388519,348.024170 498.073395,360.415344 485.785217,370.279144   C484.829163,371.046539 484.677155,373.836334 485.218628,375.288116   C489.836853,387.670135 491.530823,400.454987 488.628845,413.276855   C482.936798,438.426300 468.980652,457.349274 444.903564,468.045593   C435.349243,472.290070 425.276306,474.329254 414.994873,473.528625   C410.955109,473.214050 409.154327,473.837769 407.847748,477.303619   C407.391388,478.514252 406.579865,479.605560 405.846985,480.695160   C395.751404,495.704987 382.051941,505.798248 364.689880,510.949432   C363.679413,511.249176 362.891510,512.299194 362.000000,513.000000   C350.979095,513.000000 339.958221,513.000000 328.483185,512.619812   C327.364532,511.837372 326.748840,511.263367 326.028198,511.058594   C314.533936,507.792267 304.377441,502.111053 295.583801,494.056549   C275.488281,475.650055 271.472656,451.634003 272.093201,426.063477   C272.266113,418.937561 272.636078,411.814911 273.019318,404.696320   C273.172913,401.843872 271.945038,400.901031 269.200012,400.964935   C263.706665,401.092896 258.208160,400.997742 252.711807,400.997223   C241.880676,400.996246 242.065460,400.998749 241.960312,411.853516   C241.846176,423.635315 241.204102,435.411438 241.045029,447.193481   C240.877640,459.590973 236.199783,470.506561 229.768097,480.621796   C220.050323,495.905243 205.995483,505.704987 188.707138,510.972504   C187.692993,511.281494 186.897324,512.307617 186.000000,513.000000   C174.979111,513.000000 163.958206,513.000000 152.490631,512.620850   C151.708679,511.896393 151.429581,511.343658 151.030121,511.235504   C130.827194,505.765625 115.690437,493.835449 105.217865,475.751923   C104.433350,474.397308 102.221092,473.257416 100.582909,473.124786   C95.786224,472.736481 90.829659,473.564117 86.140022,472.745300   C67.011879,469.405487 50.929775,460.568207 39.280327,444.710846   C23.710875,423.517487 20.832003,400.320129 29.222517,375.617584   C30.203014,372.730927 29.638210,371.452515 27.304953,369.458984   C17.876081,361.403198 10.393991,351.807159 5.857349,340.078247   C4.516356,336.611267 2.634181,333.353577 1.000001,330.000000   C1.000000,318.979095 1.000000,307.958221 1.379239,296.484161   C2.138926,295.532654 2.718810,295.088409 2.870708,294.528107   C6.840692,279.884338 14.382683,267.342560 26.059319,257.729279   C29.829309,254.625473 30.173115,252.239105 28.655540,248.166260   C24.330282,236.558136 23.641882,224.512894 26.068962,212.462753   C31.551445,185.242935 46.989380,166.139877 73.470657,156.919693   C80.833038,154.356262 88.763618,153.424789 96.781250,151.668442   C97.187607,147.088013 97.242996,141.918915 98.161430,136.908005   C101.876259,116.640038 108.150383,97.317238 118.742149,79.414490   C129.415558,61.373760 142.943329,45.918049 159.481949,33.267681   C179.750107,17.764601 202.698044,7.886463 227.775711,2.988327   C228.935669,2.761764 229.929047,1.682259 231.000000,0.999999  M285.035339,337.091919   C262.720520,337.061981 240.405624,336.992981 218.090912,337.028442   C212.209000,337.037781 209.211441,340.081512 209.075760,345.960632   C208.964355,350.787384 208.936371,355.622833 209.093246,360.447235   C209.265320,365.738647 212.291519,368.931519 217.537994,368.942963   C241.348267,368.994873 265.158875,368.888062 289.874146,368.974884   C291.536194,368.983765 293.198425,369.012573 294.860260,368.998108   C302.313934,368.933258 304.996857,366.245544 305.045380,358.742462   C305.074402,354.254944 305.157867,349.762909 305.001709,345.280396   C304.824707,340.199585 301.923523,337.230133 296.910217,337.045654   C293.267303,336.911652 289.610748,337.146881 285.035339,337.091919  M167.419922,385.709167   C173.318054,418.067322 161.750305,443.199646 135.280014,462.421478   C142.448318,472.505371 151.406113,479.173248 164.609604,480.709229   C186.161026,482.512604 205.008057,469.546814 207.868759,448.110168   C209.959839,432.440674 208.278122,416.267670 208.278122,400.195404   C191.430298,395.287018 179.728561,384.497131 177.813492,366.345367   C176.644958,355.269653 178.547836,343.869354 179.083099,332.615387   C179.135315,331.517822 179.467926,330.399994 179.335953,329.332916   C178.628830,323.616150 177.027359,317.885590 177.221237,312.210571   C177.522415,303.395447 174.088730,297.616180 166.857635,292.722015   C137.785522,273.045258 117.474136,246.422684 106.061134,213.220413   C102.945343,204.156067 100.889542,194.727356 98.066025,184.441208   C93.503944,185.432129 88.720528,186.471115 83.198990,187.689178   C80.108917,189.275925 76.785362,190.529327 73.966682,192.503555   C55.700249,205.297348 51.637894,230.239914 64.895264,248.548767   C68.619133,253.691528 70.877136,258.936401 68.862839,265.251770   C67.053490,270.924652 62.753845,273.916107 57.445690,276.239410   C29.979452,288.261139 24.483860,324.617401 47.282063,343.320831   C49.014294,344.741882 51.662727,345.909546 53.816093,345.802582   C62.534664,345.369324 68.547897,348.128143 71.679764,354.720184   C74.768677,361.221771 73.260239,367.628418 67.327660,374.234436   C56.433395,386.365356 54.502171,400.363892 60.291836,415.125183   C66.039444,429.779266 76.549644,439.197845 93.837563,440.910217   C97.158173,440.796051 100.549812,441.079254 103.787346,440.500427   C119.564720,437.679626 129.649979,427.929321 134.658264,413.182281   C139.718674,398.281769 137.049332,384.671814 125.788177,373.106659   C118.741234,365.869476 118.907616,357.396515 125.983459,350.173431   C126.672867,349.469727 127.331741,348.736115 128.731110,347.856598   C137.701340,343.514496 142.851669,344.254517 149.464432,351.782990   C153.592239,356.482361 156.996094,361.817657 160.838089,367.517059   C162.995148,373.274689 165.152191,379.032349 167.419922,385.709167  M340.636078,480.704254   C360.916687,482.367645 377.262756,471.159210 383.651672,451.956451   C385.082581,447.655640 388.636169,444.061066 391.956268,440.004608   C396.386261,439.694611 400.813385,439.220520 405.247406,439.143555   C407.479309,439.104828 409.723724,439.787109 412.650635,440.584869   C428.811096,441.926147 441.695557,435.943604 450.540222,422.465332   C458.470490,410.380463 459.196350,397.425842 453.179352,384.213196   C447.878510,384.535126 442.925873,384.835907 437.127045,384.965637   C433.747437,384.659790 430.367828,384.353943 426.378845,383.616425   C396.256897,376.088562 377.274719,357.385956 370.506073,326.997192   C368.338989,317.267670 366.511780,307.018463 376.869293,299.162537   C389.852020,293.643463 400.438660,300.223328 401.089111,314.215790   C402.035034,334.565125 416.595673,350.143890 437.656616,352.822693   C458.108276,353.825714 472.632629,344.007355 478.024078,325.797913   C484.938416,302.445129 472.315826,272.555786 440.692261,272.906891   C433.782135,272.983582 428.102722,268.373138 425.975861,262.081024   C423.867737,255.844406 425.682281,249.168365 430.704468,244.866730   C431.830719,243.902023 433.065948,243.064529 434.909729,242.103973   C435.938232,241.728973 436.966736,241.353973 438.900452,241.067978   C442.533691,241.277756 446.179199,241.745850 449.794403,241.574692   C451.315857,241.502655 453.598724,240.443726 454.138062,239.218353   C464.689423,215.246460 445.044891,185.356201 418.705719,185.077805   C416.647217,185.056061 414.479248,184.795578 414.636841,188.688293   C412.605194,196.568771 411.070740,204.618454 408.456238,212.300583   C396.857574,246.380829 376.001343,273.535675 346.133606,293.626801   C339.867920,297.841522 337.009003,303.106934 336.907928,310.676819   C336.822754,317.051208 335.437408,323.407104 334.660461,329.775208   C334.585205,330.392120 334.744751,331.037201 334.791382,331.669525   C335.534454,341.750549 336.844940,351.828949 336.891693,361.913208   C336.969604,378.717957 325.709473,393.548523 309.782684,398.886719   C308.251556,399.399902 306.701630,399.856995 305.001862,400.389862   C305.001862,407.663269 304.989960,414.653259 305.005157,421.643219   C305.020752,428.807831 304.810944,435.984009 305.141998,443.134674   C306.031494,462.346985 321.437073,478.678711 340.636078,480.704254  M289.901764,304.971832   C294.857147,304.971832 299.812531,304.971832 304.799866,304.971832   C305.471680,301.666382 305.931122,298.875122 306.613251,296.139374   C310.000458,282.554077 319.004120,273.592743 330.139465,265.692139   C364.044525,241.636185 383.167755,208.485321 384.667938,167.013489   C386.554657,114.855652 363.797394,75.089325 318.665070,48.760242   C301.006531,38.458675 281.594635,33.199646 260.051758,33.088039   C255.774689,33.390770 251.486984,34.054119 247.222580,33.928108   C234.800034,33.561035 223.193802,37.017796 211.760269,41.176231   C155.786087,61.534313 120.639336,122.190247 130.675354,180.880814   C136.990372,217.811127 155.710831,246.744278 186.718704,267.689972   C194.798630,273.147888 201.365875,279.853424 204.994431,288.946716   C207.002060,293.977936 208.166168,299.345734 209.792267,304.838043   C214.685791,304.838043 219.826218,304.838043 225.899185,304.956451   C230.812866,304.956451 235.726532,304.956451 240.809052,304.956451   C240.809052,291.323486 240.809052,278.419403 240.809052,265.588104   C232.397476,263.014313 229.099503,260.746552 226.757660,256.016205   C222.929337,248.283264 225.408905,240.889404 234.889618,234.020065   C248.836319,233.817810 262.808014,233.045212 276.719147,233.654572   C283.647583,233.958069 288.671478,241.162903 289.007294,248.075699   C289.363068,255.399109 284.976593,261.816467 277.984406,264.137878   C276.448090,264.647949 274.868622,265.028168 273.337250,265.460205   C273.337250,278.611450 273.337250,291.539154 273.337250,304.855072   C278.734863,304.855072 283.852417,304.855072 289.901764,304.971832  z"/>
<path fill="#000000" opacity="1.000000" stroke="none" d=" M230.531342,0.999999   C229.929047,1.682259 228.935669,2.761764 227.775711,2.988327   C202.698044,7.886463 179.750107,17.764601 159.481949,33.267681   C142.943329,45.918049 129.415558,61.373760 118.742149,79.414490   C108.150383,97.317238 101.876259,116.640038 98.161430,136.908005   C97.242996,141.918915 97.187607,147.088013 96.781250,151.668442   C88.763618,153.424789 80.833038,154.356262 73.470657,156.919693   C46.989380,166.139877 31.551445,185.242935 26.068962,212.462753   C23.641882,224.512894 24.330282,236.558136 28.655540,248.166260   C30.173115,252.239105 29.829309,254.625473 26.059319,257.729279   C14.382683,267.342560 6.840692,279.884338 2.870708,294.528107   C2.718810,295.088409 2.138926,295.532654 1.379239,296.015503   C1.000000,197.748642 1.000000,99.497292 1.000000,1.000000   C77.354050,1.000000 153.708374,1.000000 230.531342,0.999999  z"/>
<path fill="#000000" opacity="1.000000" stroke="none" d=" M513.000000,296.531342   C512.307800,296.106232 511.261230,295.312531 510.976532,294.303741   C506.613220,278.845184 498.451019,265.933594 485.875641,255.802490   C484.922455,255.034592 484.491486,252.554901 484.946747,251.271362   C488.443481,241.413208 489.468384,231.294220 489.019196,220.915863   C488.367767,205.864716 483.151855,192.550903 474.115692,180.623795   C462.304382,165.033691 446.251343,156.663147 427.325348,153.313385   C424.250824,152.769196 421.050629,152.934738 417.904694,152.772034   C416.623718,144.665527 415.565033,136.688675 414.078033,128.792496   C409.425293,104.085564 399.005951,81.969658 383.628052,62.146187   C364.528198,37.524792 340.021454,20.260557 310.880554,9.684402   C302.392029,6.603658 293.325043,5.120478 284.535370,2.857758   C283.971222,2.712533 283.512238,2.158770 283.002167,1.397529   C359.602875,1.000000 436.205719,1.000000 513.000000,1.000000   C513.000000,99.354141 513.000000,197.708420 513.000000,296.531342  z"/>
<path fill="#000000" opacity="1.000000" stroke="none" d=" M1.000001,330.468658   C2.634181,333.353577 4.516356,336.611267 5.857349,340.078247   C10.393991,351.807159 17.876081,361.403198 27.304953,369.458984   C29.638210,371.452515 30.203014,372.730927 29.222517,375.617584   C20.832003,400.320129 23.710875,423.517487 39.280327,444.710846   C50.929775,460.568207 67.011879,469.405487 86.140022,472.745300   C90.829659,473.564117 95.786224,472.736481 100.582909,473.124786   C102.221092,473.257416 104.433350,474.397308 105.217865,475.751923   C115.690437,493.835449 130.827194,505.765625 151.030121,511.235504   C151.429581,511.343658 151.708679,511.896393 152.021973,512.620850   C101.732666,513.000000 51.465340,513.000000 1.000000,513.000000   C1.000000,452.312592 1.000000,391.624939 1.000001,330.468658  z"/>
<path fill="#000000" opacity="1.000000" stroke="none" d=" M362.468658,513.000000   C362.891510,512.299194 363.679413,511.249176 364.689880,510.949432   C382.051941,505.798248 395.751404,495.704987 405.846985,480.695160   C406.579865,479.605560 407.391388,478.514252 407.847748,477.303619   C409.154327,473.837769 410.955109,473.214050 414.994873,473.528625   C425.276306,474.329254 435.349243,472.290070 444.903564,468.045593   C468.980652,457.349274 482.936798,438.426300 488.628845,413.276855   C491.530823,400.454987 489.836853,387.670135 485.218628,375.288116   C484.677155,373.836334 484.829163,371.046539 485.785217,370.279144   C498.073395,360.415344 506.388519,348.024170 510.622192,332.853149   C510.911224,331.817322 511.694244,330.919342 512.623779,329.978638   C513.000000,390.920013 513.000000,451.839996 513.000000,513.000000   C462.979370,513.000000 412.958344,513.000000 362.468658,513.000000  z"/>
<path fill="#000000" opacity="1.000000" stroke="none" d=" M186.468658,513.000000   C186.897324,512.307617 187.692993,511.281494 188.707138,510.972504   C205.995483,505.704987 220.050323,495.905243 229.768097,480.621796   C236.199783,470.506561 240.877640,459.590973 241.045029,447.193481   C241.204102,435.411438 241.846176,423.635315 241.960312,411.853516   C242.065460,400.998749 241.880676,400.996246 252.711807,400.997223   C258.208160,400.997742 263.706665,401.092896 269.200012,400.964935   C271.945038,400.901031 273.172913,401.843872 273.019318,404.696320   C272.636078,411.814911 272.266113,418.937561 272.093201,426.063477   C271.472656,451.634003 275.488281,475.650055 295.583801,494.056549   C304.377441,502.111053 314.533936,507.792267 326.028198,511.058594   C326.748840,511.263367 327.364532,511.837372 328.014526,512.619812   C280.979095,513.000000 233.958206,513.000000 186.468658,513.000000  z"/>
<path fill="#B4F78D" opacity="1.000000" stroke="none" d=" M224.966629,304.838043   C219.826218,304.838043 214.685791,304.838043 209.792267,304.838043   C208.166168,299.345734 207.002060,293.977936 204.994431,288.946716   C201.365875,279.853424 194.798630,273.147888 186.718704,267.689972   C155.710831,246.744278 136.990372,217.811127 130.675354,180.880814   C120.639336,122.190247 155.786087,61.534313 211.760269,41.176231   C223.193802,37.017796 234.800034,33.561035 247.222580,33.928108   C251.486984,34.054119 255.774689,33.390770 260.676636,33.463913   C262.017426,34.205597 262.696625,34.766621 263.454498,34.909096   C294.229614,40.694683 320.094574,55.270729 339.783447,79.570366   C362.129608,107.149590 371.971710,138.867859 368.086700,174.498672   C363.862762,213.237244 345.424957,243.761459 313.747467,265.881104   C299.671814,275.709778 290.947266,287.864105 288.969971,304.855072   C283.852417,304.855072 278.734863,304.855072 273.337250,304.855072   C273.337250,291.539154 273.337250,278.611450 273.337250,265.460205   C274.868622,265.028168 276.448090,264.647949 277.984406,264.137878   C284.976593,261.816467 289.363068,255.399109 289.007294,248.075699   C288.671478,241.162903 283.647583,233.958069 276.719147,233.654572   C262.808014,233.045212 248.836319,233.817810 234.155823,233.842453   C230.971664,233.444138 228.520859,233.031250 226.071045,233.037018   C216.997116,233.058395 210.381912,238.447617 209.141190,246.661850   C207.931381,254.671478 212.449631,261.756104 220.966339,264.368103   C224.138214,265.340912 225.090195,266.889679 225.052078,270.014526   C224.910507,281.621002 224.977783,293.229980 224.966629,304.838043  z"/>
<path fill="#FEFEFE" opacity="1.000000" stroke="none" d=" M411.962463,440.143341   C409.723724,439.787109 407.479309,439.104828 405.247406,439.143555   C400.813385,439.220520 396.386261,439.694611 391.231995,439.891663   C379.846436,435.930298 371.294067,439.940369 367.965485,450.783936   C363.959412,463.834564 356.026031,473.156311 343.323730,478.344086   C342.124695,478.833801 341.054535,479.639099 339.924500,480.297852   C321.437073,478.678711 306.031494,462.346985 305.141998,443.134674   C304.810944,435.984009 305.020752,428.807831 305.005157,421.643219   C304.989960,414.653259 305.001862,407.663269 305.001862,400.389862   C306.701630,399.856995 308.251556,399.399902 309.782684,398.886719   C325.709473,393.548523 336.969604,378.717957 336.891693,361.913208   C336.844940,351.828949 335.534454,341.750549 334.791382,331.669525   C334.744751,331.037201 334.585205,330.392120 334.660461,329.775208   C335.437408,323.407104 336.822754,317.051208 336.907928,310.676819   C337.009003,303.106934 339.867920,297.841522 346.133606,293.626801   C376.001343,273.535675 396.857574,246.380829 408.456238,212.300583   C411.070740,204.618454 412.605194,196.568771 415.170654,188.404510   C425.056030,191.553482 431.761841,197.837036 436.402283,206.639648   C442.340302,217.903671 442.039612,229.321243 437.995239,240.978973   C436.966736,241.353973 435.938232,241.728973 434.190399,241.950729   C430.845551,241.535553 428.218628,241.038239 425.594788,241.054108   C416.258667,241.110550 409.149994,247.935425 409.026123,256.763489   C408.897797,265.913757 415.875488,272.773834 425.571869,272.986938   C441.945953,273.346863 453.608826,280.768494 460.465912,295.799194   C467.253265,310.677063 464.129700,330.858795 452.322571,341.991394   C447.847595,346.210754 442.076782,349.055756 436.896637,352.527161   C416.595673,350.143890 402.035034,334.565125 401.089111,314.215790   C400.438660,300.223328 389.852020,293.643463 376.236938,298.995850   C364.755280,293.675110 353.300446,301.065063 353.016113,313.401886   C352.297913,344.564911 376.937134,376.219543 407.443817,382.689514   C413.770111,384.031189 420.463837,383.640411 426.988220,384.048096   C430.367828,384.353943 433.747437,384.659790 437.635315,385.415466   C444.447113,403.551453 440.812042,418.980011 426.834229,431.416870   C422.622864,435.164001 416.960266,437.280090 411.962463,440.143341  M335.553101,418.721069   C328.277405,415.484070 320.819336,417.236969 316.537079,423.190521   C311.797211,429.780273 312.108276,437.919861 317.322510,443.741119   C322.334595,449.336731 329.887604,450.519470 336.880493,446.895630   C338.118042,447.358948 339.334106,447.893677 340.596771,448.273529   C347.024780,450.207458 353.654907,447.990814 357.822083,442.558197   C361.717590,437.479858 362.103119,430.351562 358.781403,424.820984   C355.447235,419.269653 348.992554,416.098938 342.726379,417.197113   C340.472412,417.592133 338.319916,418.565918 335.553101,418.721069  z"/>
<path fill="#FEFEFE" opacity="1.000000" stroke="none" d=" M160.724823,366.867584   C156.996094,361.817657 153.592239,356.482361 149.464432,351.782990   C142.851669,344.254517 137.701340,343.514496 128.170624,347.633789   C121.131683,343.542755 114.253166,345.222992 108.430832,352.096008   C103.627968,357.765564 103.605278,366.160706 108.431824,371.818787   C110.262390,373.964752 112.440887,375.849060 114.055923,378.138245   C127.992821,397.892853 119.489807,427.975006 97.329033,437.758972   C95.748344,438.456818 94.400101,439.681122 92.943771,440.660645   C76.549644,439.197845 66.039444,429.779266 60.291836,415.125183   C54.502171,400.363892 56.433395,386.365356 67.327660,374.234436   C73.260239,367.628418 74.768677,361.221771 71.679764,354.720184   C68.547897,348.128143 62.534664,345.369324 53.816093,345.802582   C51.662727,345.909546 49.014294,344.741882 47.282063,343.320831   C24.483860,324.617401 29.979452,288.261139 57.445690,276.239410   C62.753845,273.916107 67.053490,270.924652 68.862839,265.251770   C70.877136,258.936401 68.619133,253.691528 64.895264,248.548767   C51.637894,230.239914 55.700249,205.297348 73.966682,192.503555   C76.785362,190.529327 80.108917,189.275925 83.572998,188.061096   C84.254700,190.730164 84.379944,193.069260 84.897110,195.318268   C94.543938,237.269608 117.500969,270.113037 152.986130,294.256805   C158.453339,297.976624 161.100433,302.711273 161.052551,309.270264   C161.016266,314.239471 160.559250,319.433350 161.810654,324.121185   C163.101791,328.957794 162.627090,333.276398 162.112976,338.049561   C161.084900,347.594696 161.125488,357.254883 160.724823,366.867584  z"/>
<path fill="#E5E5E5" opacity="1.000000" stroke="none" d=" M160.781464,367.192322   C161.125488,357.254883 161.084900,347.594696 162.112976,338.049561   C162.627090,333.276398 163.101791,328.957794 161.810654,324.121185   C160.559250,319.433350 161.016266,314.239471 161.052551,309.270264   C161.100433,302.711273 158.453339,297.976624 152.986130,294.256805   C117.500969,270.113037 94.543938,237.269608 84.897110,195.318268   C84.379944,193.069260 84.254700,190.730164 83.942062,187.971558   C88.720528,186.471115 93.503944,185.432129 98.066025,184.441208   C100.889542,194.727356 102.945343,204.156067 106.061134,213.220413   C117.474136,246.422684 137.785522,273.045258 166.857635,292.722015   C174.088730,297.616180 177.522415,303.395447 177.221237,312.210571   C177.027359,317.885590 178.628830,323.616150 179.335953,329.332916   C179.467926,330.399994 179.135315,331.517822 179.083099,332.615387   C178.547836,343.869354 176.644958,355.269653 177.813492,366.345367   C179.728561,384.497131 191.430298,395.287018 208.278122,400.195404   C208.278122,416.267670 209.959839,432.440674 207.868759,448.110168   C205.008057,469.546814 186.161026,482.512604 164.494843,480.229767   C165.426315,479.244446 166.449844,478.683655 167.522156,478.241058   C182.021133,472.256592 191.062042,461.386108 192.488693,445.980408   C193.804581,431.770508 192.981995,417.353821 192.822144,403.031342   C192.808258,401.788727 190.935593,399.965485 189.539413,399.440002   C182.067688,396.628021 175.495483,392.621643 170.216888,386.552307   C169.508591,385.737946 168.291000,385.366516 167.309250,384.789978   C165.152191,379.032349 162.995148,373.274689 160.781464,367.192322  z"/>
<path fill="#A1DE7F" opacity="1.000000" stroke="none" d=" M289.435852,304.913452   C290.947266,287.864105 299.671814,275.709778 313.747467,265.881104   C345.424957,243.761459 363.862762,213.237244 368.086700,174.498672   C371.971710,138.867859 362.129608,107.149590 339.783447,79.570366   C320.094574,55.270729 294.229614,40.694683 263.454498,34.909096   C262.696625,34.766621 262.017426,34.205597 261.130859,33.523422   C281.594635,33.199646 301.006531,38.458675 318.665070,48.760242   C363.797394,75.089325 386.554657,114.855652 384.667938,167.013489   C383.167755,208.485321 364.044525,241.636185 330.139465,265.692139   C319.004120,273.592743 310.000458,282.554077 306.613251,296.139374   C305.931122,298.875122 305.471680,301.666382 304.799866,304.971832   C299.812531,304.971832 294.857147,304.971832 289.435852,304.913452  z"/>
<path fill="#FEFEFE" opacity="1.000000" stroke="none" d=" M167.364594,385.249573   C168.291000,385.366516 169.508591,385.737946 170.216888,386.552307   C175.495483,392.621643 182.067688,396.628021 189.539413,399.440002   C190.935593,399.965485 192.808258,401.788727 192.822144,403.031342   C192.981995,417.353821 193.804581,431.770508 192.488693,445.980408   C191.062042,461.386108 182.021133,472.256592 167.522156,478.241058   C166.449844,478.683655 165.426315,479.244446 164.137909,480.023254   C151.406113,479.173248 142.448318,472.505371 135.280014,462.421478   C161.750305,443.199646 173.318054,418.067322 167.364594,385.249573  z"/>
<path fill="none" opacity="1.000000" stroke="none" d=" M288.969360,368.838379   C265.158875,368.888062 241.348267,368.994873 217.537994,368.942963   C212.291519,368.931519 209.265320,365.738647 209.093246,360.447235   C208.936371,355.622833 208.964355,350.787384 209.075760,345.960632   C209.211441,340.081512 212.209000,337.037781 218.090912,337.028442   C240.405624,336.992981 262.720520,337.061981 285.582397,337.500427   C287.088928,341.469574 288.644745,344.991516 288.878937,348.599243   C289.315186,355.319275 288.982178,362.089203 288.969360,368.838379  z"/>
<path fill="#E5E5E5" opacity="1.000000" stroke="none" d=" M437.276611,352.674927   C442.076782,349.055756 447.847595,346.210754 452.322571,341.991394   C464.129700,330.858795 467.253265,310.677063 460.465912,295.799194   C453.608826,280.768494 441.945953,273.346863 425.571869,272.986938   C415.875488,272.773834 408.897797,265.913757 409.026123,256.763489   C409.149994,247.935425 416.258667,241.110550 425.594788,241.054108   C428.218628,241.038239 430.845551,241.535553 433.861023,241.982971   C433.065948,243.064529 431.830719,243.902023 430.704468,244.866730   C425.682281,249.168365 423.867737,255.844406 425.975861,262.081024   C428.102722,268.373138 433.782135,272.983582 440.692261,272.906891   C472.315826,272.555786 484.938416,302.445129 478.024078,325.797913   C472.632629,344.007355 458.108276,353.825714 437.276611,352.674927  z"/>
<path fill="#E4E4E4" opacity="1.000000" stroke="none" d=" M93.390671,440.785431   C94.400101,439.681122 95.748344,438.456818 97.329033,437.758972   C119.489807,427.975006 127.992821,397.892853 114.055923,378.138245   C112.440887,375.849060 110.262390,373.964752 108.431824,371.818787   C103.605278,366.160706 103.627968,357.765564 108.430832,352.096008   C114.253166,345.222992 121.131683,343.542755 127.807449,347.713684   C127.331741,348.736115 126.672867,349.469727 125.983459,350.173431   C118.907616,357.396515 118.741234,365.869476 125.788177,373.106659   C137.049332,384.671814 139.718674,398.281769 134.658264,413.182281   C129.649979,427.929321 119.564720,437.679626 103.787346,440.500427   C100.549812,441.079254 97.158173,440.796051 93.390671,440.785431  z"/>
<path fill="#E5E5E5" opacity="1.000000" stroke="none" d=" M426.683533,383.832275   C420.463837,383.640411 413.770111,384.031189 407.443817,382.689514   C376.937134,376.219543 352.297913,344.564911 353.016113,313.401886   C353.300446,301.065063 364.755280,293.675110 375.869720,299.126007   C366.511780,307.018463 368.338989,317.267670 370.506073,326.997192   C377.274719,357.385956 396.256897,376.088562 426.683533,383.832275  z"/>
<path fill="#A2DF7F" opacity="1.000000" stroke="none" d=" M225.432907,304.897247   C224.977783,293.229980 224.910507,281.621002 225.052078,270.014526   C225.090195,266.889679 224.138214,265.340912 220.966339,264.368103   C212.449631,261.756104 207.931381,254.671478 209.141190,246.661850   C210.381912,238.447617 216.997116,233.058395 226.071045,233.037018   C228.520859,233.031250 230.971664,233.444138 233.748749,233.929932   C225.408905,240.889404 222.929337,248.283264 226.757660,256.016205   C229.099503,260.746552 232.397476,263.014313 240.809052,265.588104   C240.809052,278.419403 240.809052,291.323486 240.809052,304.956451   C235.726532,304.956451 230.812866,304.956451 225.432907,304.897247  z"/>
<path fill="#E4E4E4" opacity="1.000000" stroke="none" d=" M412.306549,440.364105   C416.960266,437.280090 422.622864,435.164001 426.834229,431.416870   C440.812042,418.980011 444.447113,403.551453 438.058411,385.501007   C442.925873,384.835907 447.878510,384.535126 453.179352,384.213196   C459.196350,397.425842 458.470490,410.380463 450.540222,422.465332   C441.695557,435.943604 428.811096,441.926147 412.306549,440.364105  z"/>
<path fill="#E4E4E4" opacity="1.000000" stroke="none" d=" M438.447845,241.023468   C442.039612,229.321243 442.340302,217.903671 436.402283,206.639648   C431.761841,197.837036 425.056030,191.553482 415.349243,188.059631   C414.479248,184.795578 416.647217,185.056061 418.705719,185.077805   C445.044891,185.356201 464.689423,215.246460 454.138062,239.218353   C453.598724,240.443726 451.315857,241.502655 449.794403,241.574692   C446.179199,241.745850 442.533691,241.277756 438.447845,241.023468  z"/>
<path fill="#E4E4E4" opacity="1.000000" stroke="none" d=" M340.280304,480.501068   C341.054535,479.639099 342.124695,478.833801 343.323730,478.344086   C356.026031,473.156311 363.959412,463.834564 367.965485,450.783936   C371.294067,439.940369 379.846436,435.930298 390.860107,439.960052   C388.636169,444.061066 385.082581,447.655640 383.651672,451.956451   C377.262756,471.159210 360.916687,482.367645 340.280304,480.501068  z"/>
<path fill="#E5E5E5" opacity="1.000000" stroke="none" d=" M289.421753,368.906616   C288.982178,362.089203 289.315186,355.319275 288.878937,348.599243   C288.644745,344.991516 287.088928,341.469574 286.044891,337.563171   C289.610748,337.146881 293.267303,336.911652 296.910217,337.045654   C301.923523,337.230133 304.824707,340.199585 305.001709,345.280396   C305.157867,349.762909 305.074402,354.254944 305.045380,358.742462   C304.996857,366.245544 302.313934,368.933258 294.860260,368.998108   C293.198425,369.012573 291.536194,368.983765 289.421753,368.906616  z"/>
<path fill="#B5F78F" opacity="1.000000" stroke="none" d=" M336.121094,419.275574   C338.319916,418.565918 340.472412,417.592133 342.726379,417.197113   C348.992554,416.098938 355.447235,419.269653 358.781403,424.820984   C362.103119,430.351562 361.717590,437.479858 357.822083,442.558197   C353.654907,447.990814 347.024780,450.207458 340.596771,448.273529   C339.334106,447.893677 338.118042,447.358948 336.310547,446.533325   C326.525940,436.862732 326.633820,429.236755 336.121094,419.275574  z"/>
<path fill="#E6E6E6" opacity="1.000000" stroke="none" d=" M335.837097,418.998322   C326.633820,429.236755 326.525940,436.862732 335.937744,446.429016   C329.887604,450.519470 322.334595,449.336731 317.322510,443.741119   C312.108276,437.919861 311.797211,429.780273 316.537079,423.190521   C320.819336,417.236969 328.277405,415.484070 335.837097,418.998322  z"/>
</svg>
